<svg xmlns="http://www.w3.org/2000/svg" width="64" height="64" fill="none" viewBox="0 0 64 64">
  <path stroke="#555555" stroke-linecap="round" stroke-linejoin="round" stroke-width="1.5" d="m36.5 29.398-9-5.19 9 5.19Zm4.5 6.6v-8a2 2 0 0 0-1-1.73l-7-4a2 2 0 0 0-2 0l-7 4a2 2 0 0 0-1 1.73v8a2 2 0 0 0 1 1.73l7 4a2 2 0 0 0 2 0l7-4a2 2 0 0 0 1-1.73Z"/>
  <path stroke="#555555" stroke-linecap="round" stroke-linejoin="round" stroke-width="1.5" d="M32 42.078v-10.08m-8.73-5.04 8.73 5.05 8.73-5.05H23.27Z"/>
</svg>