<?xml version="1.0" standalone="no"?>
<!DOCTYPE svg PUBLIC "-//W3C//DTD SVG 20010904//EN"
 "http://www.w3.org/TR/2001/REC-SVG-20010904/DTD/svg10.dtd">
<svg version="1.0" xmlns="http://www.w3.org/2000/svg"
 width="700.000000pt" height="700.000000pt" viewBox="0 0 700.000000 700.000000"
 preserveAspectRatio="xMidYMid meet">
<metadata>
Created by potrace 1.14, written by Peter Selinger 2001-2017
</metadata>
<g transform="translate(0.000000,700.000000) scale(0.100000,-0.100000)"
fill="#000000" stroke="none">
<path d="M2140 4809 c-413 -40 -784 -357 -921 -786 l-23 -73 -319 -2 -320 -3
-107 -260 c-60 -143 -106 -263 -103 -267 2 -5 188 -8 413 -8 l408 0 17 -77
c90 -404 374 -735 740 -860 147 -50 194 -53 821 -53 356 0 584 4 584 9 0 5
-16 123 -35 262 -19 139 -35 254 -35 256 0 1 -242 3 -537 5 -525 3 -540 4
-604 26 -84 28 -195 106 -254 178 -46 57 -125 206 -125 237 0 15 18 17 173 17
202 1 245 8 300 47 163 114 123 426 -62 481 -22 7 -107 12 -205 12 l-167 0 23
42 c13 23 59 78 103 123 84 86 161 132 255 154 27 6 206 11 441 11 218 0 398
2 400 5 4 3 -64 511 -70 533 -2 6 -716 -2 -791 -9z"/>
<path d="M3723 4558 c3 -13 20 -132 38 -265 l33 -242 445 -3 c395 -4 452 -6
501 -22 119 -39 230 -123 301 -227 65 -96 75 -89 -127 -89 -152 0 -185 -3
-219 -19 -150 -68 -187 -317 -67 -445 56 -59 86 -66 310 -66 l203 0 -6 -22
c-3 -13 -26 -65 -51 -115 -74 -153 -199 -262 -353 -307 -45 -13 -110 -16 -358
-16 l-303 0 0 -22 c0 -22 53 -416 65 -487 l6 -33 312 5 c333 5 387 12 524 63
316 118 570 395 681 744 17 52 33 116 37 143 l7 47 388 0 388 0 102 248 c57
136 105 255 108 264 4 17 -26 18 -502 20 l-507 3 -25 73 c-79 235 -234 451
-423 591 -70 52 -194 116 -284 147 -143 49 -213 54 -741 54 l-488 0 5 -22z"/>
</g>
</svg>
